# xmcd
#
# Track frame offsets:
#	150
#	28585
#	49550
#	64639
#	79070
#	96785
#	121390
#	141107
#	165510
#	196245
#
# Disc length: 3080 seconds
#
# Revision: 0
# Processed by: cddbd v1.4PL0 Copyright (c) Steve Scherf et al.
# Submitted via: EasyCDDAExtractor 4.5.0.1
#
DISCID=7a0c060a
DTITLE=김소희 - 심청가 완창 3_4
DYEAR=1995
DGENRE=country
TTITLE0=사해용왕 심청이 거두는 대목
TTITLE1=모녀 상봉 대목
TTITLE2=인당수 또오르는 대목
TTITLE3=화초가 대목
TTITLE4=심청 황후되는 대목
TTITLE5=심황후 부친생각 대목
TTITLE6=심봉사 딸 그리워하는 대목
TTITLE7=뺑덕어멈의 행실
TTITLE8=황성길 떠나는 대목
TTITLE9=목욕후 의복 잃어버리는 대목
EXTD=
EXTT0=
EXTT1=
EXTT2=
EXTT3=
EXTT4=
EXTT5=
EXTT6=
EXTT7=
EXTT8=
EXTT9=
PLAYORDER=
